<?xml version="1.0" encoding="utf-8"?>
<!-- Generator: Adobe Illustrator 22.1.0, SVG Export Plug-In . SVG Version: 6.00 Build 0)  -->
<svg version="1.1" id="Capa_1" xmlns="http://www.w3.org/2000/svg" xmlns:xlink="http://www.w3.org/1999/xlink" x="0px" y="0px"
	 viewBox="0 0 30.7 30.7" style="enable-background:new 0 0 30.7 30.7;" xml:space="preserve">
<style type="text/css">
	.st0{fill:#FF3860;}
	.st1{fill:#D13057;}
</style>
<path class="st0" d="M28.6,9.7h-0.8v9.3c0,1.4-0.8,2.7-2.5,2.7H8.7v0.4c0,1.3,1.4,2.6,2.9,2.6h12.6l4.8,2.8l-0.7-2.8h0.2
	c1.5,0,2.2-1.3,2.2-2.6V11.9C30.7,10.6,30.1,9.7,28.6,9.7z"/>
<path class="st1" d="M22.8,3.2H3.6C1.9,3.2,0,4.7,0,6.2v11.6c0,1.3,1.6,2.3,3.2,2.4l-1,3.9l6.6-3.9h14c1.7,0,3.2-1,3.2-2.5V8.4V6.2
	C26,4.7,24.4,3.2,22.8,3.2z M6.5,13c-1,0-1.7-0.8-1.7-1.7s0.8-1.7,1.7-1.7c1,0,1.7,0.8,1.7,1.7S7.5,13,6.5,13z M13,13
	c-1,0-1.7-0.8-1.7-1.7S12,9.6,13,9.6s1.7,0.8,1.7,1.7S14,13,13,13z M19.5,13c-1,0-1.7-0.8-1.7-1.7s0.8-1.7,1.7-1.7
	c1,0,1.7,0.8,1.7,1.7S20.4,13,19.5,13z"/>
</svg>
