<svg xmlns="http://www.w3.org/2000/svg" viewBox="0 0 512 512"><path d="M221.795 303.566H179.04c-4.428 0-8.017 3.589-8.017 8.017s3.588 8.017 8.017 8.017h42.756a8.017 8.017 0 1 0-.001-16.034zM221.795 329.219H179.04c-4.428 0-8.017 3.589-8.017 8.017s3.588 8.017 8.017 8.017h42.756a8.017 8.017 0 1 0-.001-16.034zM221.795 354.873H179.04c-4.428 0-8.017 3.589-8.017 8.017s3.588 8.017 8.017 8.017h42.756a8.017 8.017 0 1 0-.001-16.034z"/><path d="M434.57 283.005l-19.558-83.121h12.01c18.566 0 33.67-15.105 33.67-33.67s-15.105-33.67-33.67-33.67H324.409c-4.428 0-8.017 3.589-8.017 8.017s3.588 8.017 8.017 8.017h34.739v34.739a8.017 8.017 0 0 0 8.017 8.017 8.017 8.017 0 0 0 8.017-8.017v-34.739h11.288l30.699 130.469a111.114 111.114 0 0 0-15.798-1.133c-9.02 0-17.789 1.093-26.188 3.139v-63.889a8.017 8.017 0 0 0-8.017-8.017 8.017 8.017 0 0 0-8.017 8.017v69.13c-27.099 11.231-48.798 32.93-60.029 60.029h-9.449V251.726c0-13.851-11.268-25.119-25.119-25.119h-51.307c-23.281 0-42.221 18.941-42.221 42.221v9.086h-3.307l-14.864-44.591v-93.296h9.086a8.017 8.017 0 0 0 8.017-8.017V97.804a8.017 8.017 0 0 0-8.017-8.017H92.994v-6.06c2.594.417 11.199 1.735 20.557 2.462 7.268.565 14.808.975 22.025-.316 3.628-.649 7.259-1.852 9.918-4.512 4.746-4.744 7.358-11.052 7.358-17.762 0-6.709-2.612-13.018-7.357-17.762-4.744-4.744-11.052-7.357-17.762-7.357-6.708 0-13.017 2.612-17.761 7.357-4.271 4.27-11.817 12.614-16.978 18.387v-.625a8.017 8.017 0 0 0-8.017-8.017 8.017 8.017 0 0 0-8.017 8.017v.625c-5.162-5.773-12.707-14.117-16.978-18.387-4.744-4.745-11.052-7.357-17.761-7.357s-13.018 2.613-17.761 7.357c-4.746 4.744-7.358 11.052-7.358 17.762 0 6.709 2.612 13.018 7.357 17.762 2.659 2.659 6.289 3.863 9.917 4.513 7.216 1.291 14.757.882 22.026.316 9.358-.728 17.963-2.045 20.557-2.462v6.058H8.017A8.017 8.017 0 0 0 0 97.804v34.205a8.017 8.017 0 0 0 8.017 8.017h9.086v86.58H8.017c-4.428 0-8.017 3.589-8.017 8.017s3.588 8.017 8.017 8.017h131.041l11.758 35.273h-5.98c-42.141 0-76.426 34.285-76.426 76.426v34.205a8.017 8.017 0 0 0 8.017 8.017h17.645c-.001.178-.009.357-.009.534 0 42.141 34.285 76.426 76.426 76.426s76.426-34.285 76.426-76.426c0-.177-.008-.356-.009-.534h78.045c-.001.178-.009.357-.009.534 0 42.141 34.285 76.426 76.426 76.426s76.426-34.285 76.426-76.426c0-.177-.007-.356-.009-.534h26.198a8.017 8.017 0 0 0 8.017-8.017c0-49.44-32.599-91.406-77.43-105.539zm.47-132.482c5.701 2.927 9.62 8.854 9.62 15.69 0 6.837-3.919 12.764-9.62 15.689v-31.379zm-32.1-1.947h16.067v35.273h-7.767l-8.3-35.273zM121.308 57.175c3.457-3.457 9.205-3.51 12.725-.12 3.484 3.356 3.694 9.041.444 12.632-3.059 1.304-13.163 1.246-24.896.068 4.243-4.693 8.859-9.711 11.727-12.58zM35.477 69.688c-3.25-3.591-3.039-9.276.445-12.632 3.519-3.391 9.267-3.335 12.723.12h.001c2.869 2.868 7.484 7.888 11.729 12.583-11.728 1.178-21.834 1.235-24.898-.071zM76.96 226.605H33.136v-86.58H76.96v86.58zm0-102.613H16.033V105.82H76.96v18.172zm110.096 144.835c0-14.44 11.747-26.188 26.188-26.188h51.307c5.01 0 9.086 4.076 9.086 9.086v26.188h-86.58v-9.086zm-50.238-42.222H92.994v-86.58h43.825v86.58zM92.994 123.992V105.82h60.927v18.171H92.994zm77.495 333.494c-33.3 0-60.393-27.092-60.393-60.393 0-.178.015-.356.016-.534h26.728c-.003.178-.022.356-.022.534 0 18.566 15.105 33.67 33.67 33.67 18.566 0 33.67-15.105 33.67-33.67 0-.178-.019-.356-.022-.534h26.728c.003.178.018.356.018.534-.001 33.301-27.093 60.393-60.393 60.393zm-17.637-60.392c0-.178.017-.356.022-.534h35.23c.005.178.021.356.021.534 0 9.725-7.912 17.637-17.637 17.637s-17.636-7.912-17.636-17.637zm138.179-16.568H84.443v-26.188c0-33.3 27.092-60.392 60.393-60.392h128.802v60.392a8.017 8.017 0 0 0 8.017 8.017h12.225a110.069 110.069 0 0 0-2.849 18.171zm110.339 76.96c-33.3 0-60.392-27.092-60.392-60.393 0-.178.015-.356.016-.534h26.728c-.003.178-.022.356-.022.534 0 18.566 15.104 33.67 33.67 33.67s33.67-15.105 33.67-33.67c0-.178-.019-.356-.022-.534h26.728c.003.178.018.356.018.534-.002 33.301-27.094 60.393-60.394 60.393zm-17.637-60.392c0-.178.017-.356.022-.534h35.23c.005.178.021.356.021.534 0 9.725-7.912 17.637-17.637 17.637s-17.636-7.912-17.636-17.637zm-76.625-16.568c4.082-48.424 44.799-86.58 94.261-86.58 49.462 0 90.178 38.156 94.261 86.58H307.108z"/><path d="M472.238 359.881a76.228 76.228 0 0 0-13.55-21.894 8.016 8.016 0 0 0-12.021 10.609 60.248 60.248 0 0 1 10.709 17.3 8.018 8.018 0 0 0 7.434 5.011 8.016 8.016 0 0 0 7.428-11.026zM438.408 321.677c-11.269-6.254-24.077-9.56-37.038-9.56-4.428 0-8.017 3.589-8.017 8.017s3.588 8.017 8.017 8.017c10.246 0 20.364 2.609 29.258 7.546a8.012 8.012 0 0 0 10.899-3.119 8.019 8.019 0 0 0-3.119-10.901z"/></svg>
