<svg id="Layer_1" xmlns="http://www.w3.org/2000/svg" viewBox="0 0 1080 781.4"><style>.st0{fill:#231f20}.st2{fill:#f2c335}</style><path class="st0" d="M198.6 257.8c-2 .1-4 .1-6 .1h-.7l6.7-.1z"/><path fill="#00a69c" d="M287.8 256.5v.2h-.1z"/><path class="st0" d="M117.6 258.9v.2l-6.7-.1z"/><path class="st2" d="M262.4 494.3l189.2 1.3 36.2-136.9-361.6-2.6c-.4 75.9 60.5 137.7 136.2 138.2zM364.2 305.8l137.4 1 22.4-84.6-244-1.7c-.3 46.8 37.4 85 84.2 85.3z"/><path d="M1050.7 171.4c-40.8-88.5-130-150.3-233.9-151-22.4-.2-44.2 2.5-64.9 7.7-91.3 22.8-163.6 94.1-187.7 185.1L477 542.5 6.4 539.1c0 3.2 0 6.4.2 9.5C10.8 665 106 758.4 223.5 759.2l245.3 1.7 6.7-.1 74.3-1 6.7-.1h.3l4.2-.3c1.7.1 3.3.2 5 .2 33.4.2 62.8-17.3 79.2-43.8v-.1c3.6-5.8 6.6-12.1 8.8-18.7 1.4-4 2.5-8.2 3.3-12.5l107.3-406.8c.3-1.4.7-2.8 1.1-4.2l.3-1.2c8.8-27.5 34.6-47.3 64.9-47.1 37.3.3 67.4 30.8 67.1 68.1s-30.8 67.4-68.1 67.1c-14.8-.1-28.4-4.9-39.4-13L742.8 529c22.3 6.5 45.9 10 70.3 10.2 143.3 1 260.2-114.3 261.3-257.6.2-39.4-8.3-76.7-23.7-110.2z" fill="#053959"/></svg>
