<svg id="Layer_1" xmlns="http://www.w3.org/2000/svg" viewBox="0 0 1012 136"><style>.st0{fill:#022859}.st1{fill:#053959}.st3{fill:#f2c335}</style><path class="st0" d="M-782.2 544h60.9v60.9h-60.9z"/><path class="st1" d="M-711.2 544h60.9v60.9h-60.9z"/><path fill="#f2eeb6" d="M-640.2 544h60.9v60.9h-60.9z"/><path class="st3" d="M-570.1 544h60.9v60.9h-60.9z"/><path fill="#bf7330" d="M-497.3 544h60.9v60.9h-60.9z"/><g><path class="st0" d="M-1021.6 161.3h34.7c4.8 0 9.4.4 13.7 1.3 4.3.9 8.1 2.4 11.3 4.6 3.2 2.2 5.8 5.1 7.6 8.7 1.9 3.6 2.8 8.2 2.8 13.8 0 5.5-.9 10-2.6 13.7-1.8 3.7-4.2 6.6-7.3 8.8-3.1 2.2-6.7 3.8-10.9 4.7-4.2.9-8.8 1.4-13.7 1.4h-15v36.4h-20.6v-93.4zm20.6 39.6h13.7c1.8 0 3.6-.2 5.3-.5 1.7-.3 3.3-.9 4.6-1.8 1.4-.8 2.5-2 3.3-3.4.8-1.5 1.3-3.3 1.3-5.5 0-2.4-.5-4.3-1.6-5.7-1.1-1.5-2.5-2.6-4.2-3.4s-3.6-1.3-5.7-1.5c-2.1-.2-4.1-.3-6.1-.3h-10.6v22.1zM-859.7 218.7c0 5.5-.8 10.6-2.5 15.3-1.7 4.7-4.2 8.7-7.5 12.1s-7.4 6.1-12.3 8c-4.9 1.9-10.6 2.9-17 2.9-6.5 0-12.2-1-17.1-2.9-4.9-1.9-9-4.6-12.3-8-3.3-3.4-5.8-7.5-7.5-12.1-1.7-4.7-2.5-9.8-2.5-15.3v-57.4h20.6v56.6c0 2.9.5 5.6 1.4 8 .9 2.5 2.2 4.6 3.9 6.4 1.7 1.8 3.7 3.2 6 4.2s4.9 1.5 7.6 1.5c2.7 0 5.2-.5 7.5-1.5s4.3-2.4 5.9-4.2c1.7-1.8 3-3.9 3.9-6.4.9-2.5 1.4-5.1 1.4-8v-56.6h20.6v57.4zM-794.6 184.1c-1.7-2.1-3.9-3.7-6.8-4.7s-5.6-1.5-8.1-1.5c-1.5 0-3 .2-4.6.5-1.6.4-3.1.9-4.5 1.6-1.4.7-2.6 1.7-3.4 3-.9 1.2-1.3 2.7-1.3 4.5 0 2.8 1.1 5 3.2 6.5s4.8 2.8 8 3.8c3.2 1.1 6.7 2.1 10.4 3.2s7.1 2.6 10.4 4.5c3.2 1.9 5.9 4.5 8 7.8 2.1 3.3 3.2 7.6 3.2 13.1 0 5.2-1 9.7-2.9 13.6-1.9 3.9-4.6 7.1-7.8 9.6-3.3 2.6-7.1 4.4-11.5 5.7s-8.9 1.8-13.8 1.8c-6.1 0-11.7-.9-16.9-2.8-5.2-1.8-10-4.8-14.5-9l14.6-16.1c2.1 2.8 4.8 5 8 6.5s6.5 2.3 10 2.3c1.7 0 3.4-.2 5.1-.6s3.3-1 4.6-1.8c1.4-.8 2.5-1.8 3.3-3 .8-1.2 1.3-2.7 1.3-4.4 0-2.8-1.1-5-3.2-6.7-2.2-1.6-4.9-3-8.1-4.2-3.3-1.1-6.8-2.3-10.6-3.4s-7.3-2.7-10.6-4.6c-3.3-1.9-6-4.5-8.1-7.6-2.2-3.2-3.2-7.3-3.2-12.5 0-5 1-9.4 3-13.2 2-3.8 4.6-6.9 7.9-9.5 3.3-2.5 7.1-4.5 11.4-5.7 4.3-1.3 8.7-1.9 13.3-1.9 5.3 0 10.4.7 15.3 2.2 4.9 1.5 9.4 4 13.3 7.5l-14.4 15.5zM-765.1 161.3h20.6v34.8h40v-34.8h20.6v93.4h-20.6v-40.4h-40v40.4h-20.6v-93.4zM-622.6 161.3h26.9c3.3 0 6.7.4 10.2 1.1 3.6.7 6.8 2 9.8 3.9 2.9 1.8 5.4 4.4 7.3 7.6 1.9 3.2 2.8 7.2 2.8 12.1 0 4.2-.8 7.9-2.3 10.9-1.5 3.1-3.6 5.6-6.2 7.6s-5.6 3.5-9 4.4c-3.4 1-6.9 1.5-10.6 1.5h-20.2v44.3h-8.7v-93.4zm8.7 41.1h19.8c2.5 0 4.9-.3 7.3-.9 2.4-.6 4.5-1.5 6.3-2.8 1.8-1.3 3.3-3 4.5-5.1 1.1-2.1 1.7-4.7 1.7-7.8 0-3-.6-5.5-1.8-7.6-1.2-2.1-2.7-3.8-4.6-5.2-1.9-1.4-4.1-2.4-6.5-3-2.5-.6-4.9-.9-7.4-.9h-19.3v33.3zM-528.1 161.3h9l39.3 93.4h-9.8l-10.2-24.8h-49.5l-10.5 24.8h-9.1l40.8-93.4zm4.1 9.5l-21.8 51.2h42.9l-21.1-51.2zM-466.3 161.3h24.5c1.2 0 2.9 0 5 .1s4.4.4 6.9.8 5 1.1 7.5 2.1 4.8 2.4 6.9 4.2c2 1.8 3.7 4.2 5 7 1.3 2.8 2 6.2 2 10.3 0 4.5-.8 8.2-2.3 11.1-1.5 2.9-3.5 5.3-5.8 7.1-2.3 1.8-4.9 3.1-7.7 4-2.8.9-5.5 1.5-8 1.8l27.2 44.8h-9.9l-26.2-44.3h-16.2v44.3h-8.7v-93.3zm8.7 41.1h18.5c4.6 0 8.3-.6 11.1-1.7 2.9-1.1 5.1-2.5 6.7-4.2 1.6-1.7 2.7-3.5 3.2-5.4.6-1.9.9-3.7.9-5.3s-.3-3.3-.9-5.3c-.6-1.9-1.6-3.7-3.2-5.4-1.6-1.7-3.8-3.1-6.7-4.2-2.9-1.1-6.6-1.7-11.1-1.7h-18.5v33.2zM-311.3 240c-4.5 6.1-9.7 10.4-15.6 13.1-5.9 2.6-12.3 4-19.1 4-7.1 0-13.6-1.2-19.6-3.6-5.9-2.4-11-5.8-15.2-10.2-4.2-4.4-7.5-9.5-9.9-15.6-2.4-6-3.6-12.6-3.6-19.7s1.2-13.7 3.6-19.7c2.4-6 5.7-11.1 9.9-15.5s9.3-7.8 15.2-10.2c5.9-2.5 12.5-3.7 19.6-3.7 6.3 0 12.2 1.1 17.7 3.4 5.5 2.2 10.3 6 14.4 11.3l-7.1 5.9c-2.9-4.4-6.6-7.6-11.1-9.6s-9.2-3-13.9-3c-6.1 0-11.5 1.1-16.4 3.2-4.9 2.1-9 5-12.5 8.7-3.4 3.7-6.1 8-7.9 13.1-1.8 5-2.8 10.4-2.8 16.2s.9 11.2 2.8 16.2c1.8 5 4.5 9.4 7.9 13.1 3.4 3.7 7.6 6.6 12.5 8.7 4.9 2.1 10.4 3.2 16.4 3.2 2.4 0 4.8-.3 7.4-.9 2.5-.6 5-1.5 7.5-2.6 2.4-1.2 4.7-2.7 6.9-4.5 2.2-1.8 4.1-4 5.8-6.5l7.1 5.2zM-295.3 161.3h57.1v7.9h-48.4v33.2h45.4v7.9h-45.4v36.4h50.5v7.9h-59.2v-93.3zM-217.1 161.3h8.7v85.5h43.5v7.9h-52.2v-93.4z"/></g><g><path class="st1" d="M-696.1-44.8h-2 2zM-669.1-45.2zM-720.7-44.5h-2zM-676.8 26.8l57.3.4 11-41.5L-718-15c-.2 22.9 18.3 41.7 41.2 41.8zM-645.9-30.3l41.7.3 6.8-25.6-74-.5c-.1 14.1 11.3 25.7 25.5 25.8z"/><path class="st1" d="M-437.8-71c-12.4-26.8-39.4-45.6-70.9-45.8-6.8 0-13.4.8-19.7 2.3-27.7 6.9-49.6 28.5-56.9 56.1l-26.4 99.8-142.6-1c0 1 0 1.9.1 2.9 1.3 35.3 30.1 63.6 65.7 63.8l74.4.5h2l22.5-.3h2.1c.4 0 .9 0 1.3-.1.5 0 1 .1 1.5.1 10.1.1 19-5.3 24-13.3 1.1-1.8 2-3.7 2.7-5.7.4-1.2.7-2.5 1-3.8l32.5-123.3c.1-.4.2-.9.3-1.3l.1-.4c2.7-8.3 10.5-14.3 19.7-14.3 11.3.1 20.4 9.3 20.4 20.6-.1 11.3-9.3 20.4-20.6 20.4-4.5 0-8.6-1.5-12-4l-14.5 55c6.8 2 13.9 3 21.3 3.1 43.4.3 78.9-34.7 79.2-78.1 0-11.8-2.5-23.1-7.2-33.2z"/></g><g><path class="st1" d="M289.1 58.5c0 17.6-13.5 28.7-34.7 28.7h-11v18.7h-25.7V29.8h36.6c21.4 0 34.8 11.1 34.8 28.7zm-25.8 0c0-5.5-3.4-8.9-10.4-8.9h-9.4v17.8h9.4c7 0 10.4-3.3 10.4-8.9zM295.8 71.7V29.8h25.7v41.1c0 11.6 4.5 16 11.6 16s11.6-4.3 11.6-16V29.8h25.2v41.9c0 22.8-13.7 36-37.1 36s-37-13.2-37-36zM376.9 99.8l8.3-18.7c7.2 4.2 16.7 7 25.1 7 7.3 0 9.9-1.5 9.9-4.1 0-9.6-42.1-1.8-42.1-30.2 0-14.1 11.9-25.7 35.4-25.7 10.2 0 20.8 2.2 28.7 6.6l-7.7 18.6c-7.5-3.8-14.6-5.7-21.2-5.7-7.5 0-9.9 2.2-9.9 4.8 0 9.1 42.1 1.5 42.1 29.6 0 13.9-11.9 25.7-35.4 25.7-12.8 0-25.6-3.2-33.2-7.9zM528.1 29.8v76.1h-25.7v-28h-23.7V106H453V29.8h25.7v27h23.7v-27h25.7z"/><path class="st3" d="M611.8 58.5c0 17.6-13.5 28.7-34.7 28.7h-11v18.7h-25.7V29.8H577c21.4 0 34.8 11.1 34.8 28.7zm-25.8 0c0-5.5-3.4-8.9-10.4-8.9h-9.4v17.8h9.4c7 0 10.4-3.3 10.4-8.9zM668.3 92.7h-28.9l-5.1 13.3h-26.1l33.3-76.1h25.2L700 106h-26.5l-5.2-13.3zm-7.1-18.5l-7.4-19.1-7.4 19.1h14.8zM736.7 86.8h-7v19.1H704V29.8h36.6c21.2 0 34.7 11.1 34.7 28.7 0 11-5.2 19.2-14.4 23.9l16 23.5h-27.4l-12.8-19.1zm2.3-37.2h-9.4v17.8h9.4c7.1 0 10.4-3.4 10.4-8.9.1-5.5-3.3-8.9-10.4-8.9zM782 67.9c0-23.4 17.9-39.8 42.4-39.8 14.9 0 26.6 5.4 34.1 15.2l-16.2 14.5c-4.5-5.7-9.8-8.9-16.6-8.9-10.7 0-17.8 7.4-17.8 19s7.2 19 17.8 19c6.9 0 12.2-3.3 16.6-8.9l16.2 14.5c-7.5 9.8-19.2 15.2-34.1 15.2-24.5 0-42.4-16.4-42.4-39.8zM929.2 86.6V106h-63.3V29.8h61.9v19.4h-36.6v8.9h32.2v18.5h-32.2v10h38zM939.1 29.8h25.7V86h34.4v19.9h-60V29.8z"/></g><g><path class="st1" d="M41.1 47.7h-1 1zM54.6 47.5v.1zM28.8 47.9h-1z"/><path class="st3" d="M50.8 83.6l28.7.2L85 63l-54.8-.4c-.1 11.5 9.1 20.9 20.6 21zM66.2 55l20.8.1 3.4-12.8-37-.3c0 7.2 5.7 13 12.8 13z"/><path class="st1" d="M170.3 34.6c-6.2-13.4-19.7-22.8-35.5-22.9-3.4 0-6.7.4-9.8 1.2-13.8 3.5-24.8 14.3-28.5 28.1L83.3 90.9 12 90.4v1.4c.6 17.6 15.1 31.8 32.9 31.9l37.2.3h1l11.3-.1H96.8c5.1 0 9.5-2.6 12-6.6.5-.9 1-1.8 1.3-2.8.2-.6.4-1.2.5-1.9L127 50.8c.1-.2.1-.4.2-.6V50c1.3-4.2 5.2-7.2 9.8-7.1 5.7 0 10.2 4.7 10.2 10.3s-4.7 10.2-10.3 10.2c-2.2 0-4.3-.7-6-2l-7.3 27.5c3.4 1 7 1.5 10.7 1.5 21.7.2 39.5-17.3 39.6-39.1.1-5.9-1.2-11.6-3.6-16.7z"/></g></svg>
